<mxfile host="app.diagrams.net" modified="2021-04-03T14:15:30.868Z" agent="5.0 (Windows NT 10.0; Win64; x64) AppleWebKit/537.36 (KHTML, like Gecko) Chrome/89.0.4389.90 Safari/537.36" etag="1mSZPro5UZt7C71NdHbc" version="14.5.1" type="github">
  <diagram id="C5RBs43oDa-KdzZeNtuy" name="Page-1">
    <mxGraphModel dx="996" dy="616" grid="1" gridSize="10" guides="1" tooltips="1" connect="1" arrows="1" fold="1" page="1" pageScale="1" pageWidth="827" pageHeight="1169" math="0" shadow="0">
      <root>
        <mxCell id="WIyWlLk6GJQsqaUBKTNV-0" />
        <mxCell id="WIyWlLk6GJQsqaUBKTNV-1" parent="WIyWlLk6GJQsqaUBKTNV-0" />
        <mxCell id="V8OyjjAhMM81j7kfmUXf-10" value="" style="curved=1;endArrow=classic;html=1;exitX=0.997;exitY=0.608;exitDx=0;exitDy=0;exitPerimeter=0;entryX=0;entryY=0.5;entryDx=0;entryDy=0;" edge="1" parent="WIyWlLk6GJQsqaUBKTNV-1" target="V8OyjjAhMM81j7kfmUXf-38">
          <mxGeometry width="50" height="50" relative="1" as="geometry">
            <mxPoint x="328.64599999999996" y="212.34400000000005" as="sourcePoint" />
            <mxPoint x="540" y="300" as="targetPoint" />
            <Array as="points">
              <mxPoint x="430" y="210" />
              <mxPoint x="390" y="290" />
            </Array>
          </mxGeometry>
        </mxCell>
        <mxCell id="V8OyjjAhMM81j7kfmUXf-25" value="" style="shape=table;html=1;whiteSpace=wrap;startSize=0;container=1;collapsible=0;childLayout=tableLayout;" vertex="1" parent="WIyWlLk6GJQsqaUBKTNV-1">
          <mxGeometry x="270" y="190" width="60" height="220" as="geometry" />
        </mxCell>
        <mxCell id="V8OyjjAhMM81j7kfmUXf-26" value="" style="shape=partialRectangle;html=1;whiteSpace=wrap;collapsible=0;dropTarget=0;pointerEvents=0;fillColor=none;top=0;left=0;bottom=0;right=0;points=[[0,0.5],[1,0.5]];portConstraint=eastwest;" vertex="1" parent="V8OyjjAhMM81j7kfmUXf-25">
          <mxGeometry width="60" height="40" as="geometry" />
        </mxCell>
        <mxCell id="V8OyjjAhMM81j7kfmUXf-27" value="&lt;font style=&quot;vertical-align: inherit&quot;&gt;&lt;font style=&quot;vertical-align: inherit&quot;&gt;Code1&lt;/font&gt;&lt;/font&gt;" style="shape=partialRectangle;html=1;whiteSpace=wrap;connectable=0;overflow=hidden;fillColor=none;top=0;left=0;bottom=0;right=0;" vertex="1" parent="V8OyjjAhMM81j7kfmUXf-26">
          <mxGeometry width="60" height="40" as="geometry" />
        </mxCell>
        <mxCell id="V8OyjjAhMM81j7kfmUXf-28" value="" style="shape=partialRectangle;html=1;whiteSpace=wrap;collapsible=0;dropTarget=0;pointerEvents=0;fillColor=none;top=0;left=0;bottom=0;right=0;points=[[0,0.5],[1,0.5]];portConstraint=eastwest;" vertex="1" parent="V8OyjjAhMM81j7kfmUXf-25">
          <mxGeometry y="40" width="60" height="60" as="geometry" />
        </mxCell>
        <mxCell id="V8OyjjAhMM81j7kfmUXf-29" value="" style="shape=partialRectangle;html=1;whiteSpace=wrap;connectable=0;overflow=hidden;fillColor=none;top=0;left=0;bottom=0;right=0;" vertex="1" parent="V8OyjjAhMM81j7kfmUXf-28">
          <mxGeometry width="60" height="60" as="geometry" />
        </mxCell>
        <mxCell id="V8OyjjAhMM81j7kfmUXf-30" value="" style="shape=partialRectangle;html=1;whiteSpace=wrap;collapsible=0;dropTarget=0;pointerEvents=0;fillColor=none;top=0;left=0;bottom=0;right=0;points=[[0,0.5],[1,0.5]];portConstraint=eastwest;" vertex="1" parent="V8OyjjAhMM81j7kfmUXf-25">
          <mxGeometry y="100" width="60" height="40" as="geometry" />
        </mxCell>
        <mxCell id="V8OyjjAhMM81j7kfmUXf-31" value="&lt;span&gt;code2&lt;/span&gt;" style="shape=partialRectangle;html=1;whiteSpace=wrap;connectable=0;overflow=hidden;fillColor=none;top=0;left=0;bottom=0;right=0;" vertex="1" parent="V8OyjjAhMM81j7kfmUXf-30">
          <mxGeometry width="60" height="40" as="geometry" />
        </mxCell>
        <mxCell id="V8OyjjAhMM81j7kfmUXf-32" value="" style="shape=partialRectangle;html=1;whiteSpace=wrap;collapsible=0;dropTarget=0;pointerEvents=0;fillColor=none;top=0;left=0;bottom=0;right=0;points=[[0,0.5],[1,0.5]];portConstraint=eastwest;" vertex="1" parent="V8OyjjAhMM81j7kfmUXf-25">
          <mxGeometry y="140" width="60" height="40" as="geometry" />
        </mxCell>
        <mxCell id="V8OyjjAhMM81j7kfmUXf-33" value="" style="shape=partialRectangle;html=1;whiteSpace=wrap;connectable=0;overflow=hidden;fillColor=none;top=0;left=0;bottom=0;right=0;" vertex="1" parent="V8OyjjAhMM81j7kfmUXf-32">
          <mxGeometry width="60" height="40" as="geometry" />
        </mxCell>
        <mxCell id="V8OyjjAhMM81j7kfmUXf-34" value="" style="shape=partialRectangle;html=1;whiteSpace=wrap;collapsible=0;dropTarget=0;pointerEvents=0;fillColor=none;top=0;left=0;bottom=0;right=0;points=[[0,0.5],[1,0.5]];portConstraint=eastwest;" vertex="1" parent="V8OyjjAhMM81j7kfmUXf-25">
          <mxGeometry y="180" width="60" height="40" as="geometry" />
        </mxCell>
        <mxCell id="V8OyjjAhMM81j7kfmUXf-35" value="" style="shape=partialRectangle;html=1;whiteSpace=wrap;connectable=0;overflow=hidden;fillColor=none;top=0;left=0;bottom=0;right=0;" vertex="1" parent="V8OyjjAhMM81j7kfmUXf-34">
          <mxGeometry width="60" height="40" as="geometry" />
        </mxCell>
        <mxCell id="V8OyjjAhMM81j7kfmUXf-37" value="" style="shape=table;html=1;whiteSpace=wrap;startSize=0;container=1;collapsible=0;childLayout=tableLayout;" vertex="1" parent="WIyWlLk6GJQsqaUBKTNV-1">
          <mxGeometry x="560" y="210" width="60" height="80" as="geometry" />
        </mxCell>
        <mxCell id="V8OyjjAhMM81j7kfmUXf-38" value="" style="shape=partialRectangle;html=1;whiteSpace=wrap;collapsible=0;dropTarget=0;pointerEvents=0;fillColor=none;top=0;left=0;bottom=0;right=0;points=[[0,0.5],[1,0.5]];portConstraint=eastwest;" vertex="1" parent="V8OyjjAhMM81j7kfmUXf-37">
          <mxGeometry width="60" height="40" as="geometry" />
        </mxCell>
        <mxCell id="V8OyjjAhMM81j7kfmUXf-39" value="&lt;font style=&quot;vertical-align: inherit&quot;&gt;&lt;font style=&quot;vertical-align: inherit&quot;&gt;Code1&lt;br&gt;&lt;/font&gt;&lt;/font&gt;" style="shape=partialRectangle;html=1;whiteSpace=wrap;connectable=0;overflow=hidden;fillColor=none;top=0;left=0;bottom=0;right=0;" vertex="1" parent="V8OyjjAhMM81j7kfmUXf-38">
          <mxGeometry width="60" height="40" as="geometry" />
        </mxCell>
        <mxCell id="V8OyjjAhMM81j7kfmUXf-40" value="" style="shape=partialRectangle;html=1;whiteSpace=wrap;collapsible=0;dropTarget=0;pointerEvents=0;fillColor=none;top=0;left=0;bottom=0;right=0;points=[[0,0.5],[1,0.5]];portConstraint=eastwest;" vertex="1" parent="V8OyjjAhMM81j7kfmUXf-37">
          <mxGeometry y="40" width="60" height="40" as="geometry" />
        </mxCell>
        <mxCell id="V8OyjjAhMM81j7kfmUXf-41" value="&lt;font style=&quot;vertical-align: inherit&quot;&gt;&lt;font style=&quot;vertical-align: inherit&quot;&gt;/ret&lt;/font&gt;&lt;/font&gt;" style="shape=partialRectangle;html=1;whiteSpace=wrap;connectable=0;overflow=hidden;fillColor=none;top=0;left=0;bottom=0;right=0;" vertex="1" parent="V8OyjjAhMM81j7kfmUXf-40">
          <mxGeometry width="60" height="40" as="geometry" />
        </mxCell>
        <mxCell id="V8OyjjAhMM81j7kfmUXf-42" value="" style="curved=1;endArrow=classic;html=1;exitX=1;exitY=0.5;exitDx=0;exitDy=0;entryX=0;entryY=0.5;entryDx=0;entryDy=0;" edge="1" parent="WIyWlLk6GJQsqaUBKTNV-1" source="V8OyjjAhMM81j7kfmUXf-30" target="V8OyjjAhMM81j7kfmUXf-44">
          <mxGeometry width="50" height="50" relative="1" as="geometry">
            <mxPoint x="333.64599999999996" y="328.34400000000005" as="sourcePoint" />
            <mxPoint x="545" y="416" as="targetPoint" />
            <Array as="points">
              <mxPoint x="420" y="300" />
              <mxPoint x="470" y="380" />
            </Array>
          </mxGeometry>
        </mxCell>
        <mxCell id="V8OyjjAhMM81j7kfmUXf-43" value="" style="shape=table;html=1;whiteSpace=wrap;startSize=0;container=1;collapsible=0;childLayout=tableLayout;" vertex="1" parent="WIyWlLk6GJQsqaUBKTNV-1">
          <mxGeometry x="560" y="330" width="60" height="82" as="geometry" />
        </mxCell>
        <mxCell id="V8OyjjAhMM81j7kfmUXf-44" value="" style="shape=partialRectangle;html=1;whiteSpace=wrap;collapsible=0;dropTarget=0;pointerEvents=0;fillColor=none;top=0;left=0;bottom=0;right=0;points=[[0,0.5],[1,0.5]];portConstraint=eastwest;" vertex="1" parent="V8OyjjAhMM81j7kfmUXf-43">
          <mxGeometry width="60" height="42" as="geometry" />
        </mxCell>
        <mxCell id="V8OyjjAhMM81j7kfmUXf-45" value="&lt;font style=&quot;vertical-align: inherit&quot;&gt;&lt;font style=&quot;vertical-align: inherit&quot;&gt;Code2&lt;br&gt;&lt;/font&gt;&lt;/font&gt;" style="shape=partialRectangle;html=1;whiteSpace=wrap;connectable=0;overflow=hidden;fillColor=none;top=0;left=0;bottom=0;right=0;" vertex="1" parent="V8OyjjAhMM81j7kfmUXf-44">
          <mxGeometry width="60" height="42" as="geometry" />
        </mxCell>
        <mxCell id="V8OyjjAhMM81j7kfmUXf-46" value="" style="shape=partialRectangle;html=1;whiteSpace=wrap;collapsible=0;dropTarget=0;pointerEvents=0;fillColor=none;top=0;left=0;bottom=0;right=0;points=[[0,0.5],[1,0.5]];portConstraint=eastwest;" vertex="1" parent="V8OyjjAhMM81j7kfmUXf-43">
          <mxGeometry y="42" width="60" height="40" as="geometry" />
        </mxCell>
        <mxCell id="V8OyjjAhMM81j7kfmUXf-47" value="&lt;font style=&quot;vertical-align: inherit&quot;&gt;&lt;font style=&quot;vertical-align: inherit&quot;&gt;/ret&lt;/font&gt;&lt;/font&gt;" style="shape=partialRectangle;html=1;whiteSpace=wrap;connectable=0;overflow=hidden;fillColor=none;top=0;left=0;bottom=0;right=0;" vertex="1" parent="V8OyjjAhMM81j7kfmUXf-46">
          <mxGeometry width="60" height="40" as="geometry" />
        </mxCell>
        <mxCell id="V8OyjjAhMM81j7kfmUXf-48" value="" style="curved=1;endArrow=classic;html=1;entryX=1;entryY=0.5;entryDx=0;entryDy=0;exitX=0;exitY=0.5;exitDx=0;exitDy=0;dashed=1;" edge="1" parent="WIyWlLk6GJQsqaUBKTNV-1" source="V8OyjjAhMM81j7kfmUXf-40" target="V8OyjjAhMM81j7kfmUXf-30">
          <mxGeometry width="50" height="50" relative="1" as="geometry">
            <mxPoint x="390" y="340" as="sourcePoint" />
            <mxPoint x="440" y="290" as="targetPoint" />
            <Array as="points">
              <mxPoint x="490" y="290" />
              <mxPoint x="440" y="310" />
              <mxPoint x="430" y="270" />
            </Array>
          </mxGeometry>
        </mxCell>
      </root>
    </mxGraphModel>
  </diagram>
</mxfile>
